<svg xmlns="http://www.w3.org/2000/svg" viewBox="0 0 40.5 29.08"><defs><style>.cls-1{fill:none;stroke:#231f20;stroke-linejoin:round;stroke-width:2.5px;}</style></defs><title>Asset 15</title><g id="Layer_2" data-name="Layer 2"><g id="Layer_1-2" data-name="Layer 1"><path d="M20.1,7.64A15.59,15.59,0,0,0,16.68,8a.69.69,0,0,0,.16,1.37H17A14.14,14.14,0,0,1,20.1,9h0a.71.71,0,0,0,.71-.7A.7.7,0,0,0,20.1,7.64Z"/><path d="M13.44,9.91a.7.7,0,0,0-1-.25A15.35,15.35,0,0,0,5.35,20.05a.69.69,0,0,0,.57.81H6a.71.71,0,0,0,.7-.58,13.92,13.92,0,0,1,6.46-9.43A.7.7,0,0,0,13.44,9.91Z"/><path class="cls-1" d="M34,27.83H6.49a4.4,4.4,0,0,1-3.85-2.26L1.25,23.06h38l-1.39,2.51A4.4,4.4,0,0,1,34,27.83Z"/><path class="cls-1" d="M2.51,23.06c0-.29,0-.58,0-.88,0-8.47,6.8-15.46,15.54-16.4a17.15,17.15,0,0,1,2-.11,16.75,16.75,0,0,1,2,.11c8.76.94,15.55,7.93,15.55,16.4,0,.3,0,.59,0,.88"/><path class="cls-1" d="M22.89,3.91a2.56,2.56,0,0,1-.82,1.87,16.75,16.75,0,0,0-2-.11,17.15,17.15,0,0,0-2,.11,2.58,2.58,0,0,1-.81-1.87,2.85,2.85,0,0,1,5.68,0Z"/></g></g></svg>