<svg xmlns="http://www.w3.org/2000/svg" viewBox="0 0 39 20.95"><defs><style>.cls-1,.cls-2{fill:none;stroke:#000;stroke-linecap:round;stroke-width:2px;}.cls-1{stroke-linejoin:round;}.cls-2{stroke-miterlimit:10;}</style></defs><title>Asset 6</title><g id="Layer_2" data-name="Layer 2"><g id="Layer_1-2" data-name="Layer 1"><path d="M9.78,4.91A.8.8,0,0,0,9,5.7a.81.81,0,0,0,1.61,0A.79.79,0,0,0,9.78,4.91Z"/><path d="M9.78,8.09A.8.8,0,0,0,9,8.88a.81.81,0,0,0,1.61,0A.79.79,0,0,0,9.78,8.09Z"/><path d="M9.78,11.27a.8.8,0,0,0-.81.8.81.81,0,1,0,.81-.8Z"/><path d="M9.78,14.46a.8.8,0,0,0-.81.79.81.81,0,0,0,1.61,0A.79.79,0,0,0,9.78,14.46Z"/><polyline class="cls-1" points="7.7 19.95 1 19.95 1 1 7.85 1"/><polyline class="cls-1" points="12 1 38 1 38 19.95 12.15 19.95"/><polyline class="cls-1" points="7.85 1 9.93 3.05 12 1"/><polyline class="cls-1" points="7.7 19.95 9.93 17.75 12.15 19.95"/><ellipse class="cls-2" cx="22.59" cy="7.41" rx="2.36" ry="2.33"/><ellipse class="cls-2" cx="28.74" cy="14.06" rx="2.36" ry="2.33"/><path class="cls-2" d="M21.17,15.34l8.76-8.63"/></g></g></svg>