<svg xmlns="http://www.w3.org/2000/svg" viewBox="0 0 33.11 40"><defs><style>.cls-1{fill:none;stroke:#7d141b;stroke-linecap:round;stroke-linejoin:round;stroke-width:2.5px;}</style></defs><title>Asset 17</title><g id="Layer_2" data-name="Layer 2"><g id="Layer_1-2" data-name="Layer 1"><path class="cls-1" d="M9.61,9H4.11a.81.81,0,0,0-.81.72L1.27,33a5.38,5.38,0,0,0,5.5,5.72H26.34A5.38,5.38,0,0,0,31.83,33L29.48,9.72a.8.8,0,0,0-.8-.71H22.84"/><line class="cls-1" x1="22.84" y1="9.01" x2="9.61" y2="9.01"/><path class="cls-1" d="M9.21,13.36V7.93a6.83,6.83,0,0,1,7-6.68h.08a6.84,6.84,0,0,1,7,6.68v5.43"/><polyline class="cls-1" points="11.32 23.45 14.64 26.64 20.93 20.62"/></g></g></svg>