<svg xmlns="http://www.w3.org/2000/svg" xmlns:xlink="http://www.w3.org/1999/xlink" viewBox="0 0 100 100"><defs><style>.cls-1{fill:url(#linear-gradient);}.cls-2,.cls-3,.cls-4{fill:none;stroke-miterlimit:10;stroke-width:2px;}.cls-2{stroke:#ffcc0a;stroke-linecap:round;}.cls-3,.cls-4{stroke:#7d141a;}.cls-4{stroke-dasharray:3;}.cls-5{font-size:8.33px;fill:#7d141a;font-family:RupeeForadian, Rupee Foradian;}</style><linearGradient id="linear-gradient" x1="50" y1="100" x2="50" gradientUnits="userSpaceOnUse"><stop offset="0" stop-color="#fff"/><stop offset="0.5" stop-color="#fafdff"/><stop offset="0.55" stop-color="#f9fdff"/><stop offset="1" stop-color="#f0fafe"/></linearGradient></defs><title>Asset 48</title><g id="Layer_2" data-name="Layer 2"><g id="Layer_1-2" data-name="Layer 1"><circle class="cls-1" cx="50" cy="50" r="50"/><ellipse class="cls-2" cx="70.68" cy="30.27" rx="6.41" ry="6.02"/><path class="cls-2" d="M51,26.62a6.28,6.28,0,0,0,6.28,4.92,6.63,6.63,0,0,0,2.93-.66"/><path class="cls-2" d="M45.47,28.26A5.66,5.66,0,0,1,46.16,31a5.52,5.52,0,0,1-.08.92,6.2,6.2,0,0,1-5.41,5"/><path class="cls-2" d="M32.39,29.36a6.51,6.51,0,0,0,1,.87,6.76,6.76,0,0,0,3.72,1.11,6,6,0,0,0,1.59-.2"/><path class="cls-2" d="M28.44,33.06a5.8,5.8,0,0,1-.14,9.4"/><path class="cls-2" d="M49.58,46.34a6.47,6.47,0,0,1,12.65,0"/><path class="cls-2" d="M39.3,46a5.82,5.82,0,0,1,2.28-6.36"/><polyline class="cls-2" points="32.44 46.34 28.3 42.46 23.37 37.83 28.44 33.06 32.39 29.36 37.88 24.2 38.77 25.04 42.51 28.55 43 29.01"/><polyline class="cls-2" points="63.03 46.34 65.2 45.69 60.18 30.88 58 24.51 50.97 26.62 45.47 28.26 43 29.01 41.86 29.34 38.44 30.37 38.7 31.14 40.67 36.93 43.86 46.34"/><polyline class="cls-3" points="71.36 67.74 71.36 76.17 29.04 76.17 29.04 46.44 71.36 46.44 71.36 55.76"/><path class="cls-3" d="M58.76,55.76H74.68a0,0,0,0,1,0,0v12a0,0,0,0,1,0,0H58.76A3.69,3.69,0,0,1,55.07,64v-4.6A3.69,3.69,0,0,1,58.76,55.76Z"/><line class="cls-4" x1="30.55" y1="49.86" x2="69.1" y2="49.86"/><line class="cls-4" x1="30.55" y1="72.76" x2="69.1" y2="72.76"/><ellipse class="cls-3" cx="60.8" cy="61.31" rx="2.34" ry="2.29"/><text class="cls-5" transform="translate(68.49 33.55) scale(1.02 1)">`</text></g></g></svg>