<svg xmlns="http://www.w3.org/2000/svg" viewBox="0 0 40 40"><defs><style>.cls-1{fill:#7d141a;}.cls-2{fill:#fff;}</style></defs><title>Asset 33</title><g id="Layer_2" data-name="Layer 2"><g id="Layer_1-2" data-name="Layer 1"><path class="cls-1" d="M40,20A20,20,0,1,1,0,20a20.32,20.32,0,0,1,.48-4.37A20,20,0,0,1,40,20Z"/><path class="cls-2" d="M33.8,14.16a14.66,14.66,0,0,0-8-7.95,14.76,14.76,0,0,0-11.66,0,15,15,0,0,0-8,19.61,14.95,14.95,0,0,0,19.63,8,14.74,14.74,0,0,0,8-8,14.76,14.76,0,0,0,0-11.66ZM31.41,26.61a13.23,13.23,0,0,1-4.82,4.81A13,13,0,0,1,20,33.19a12.78,12.78,0,0,1-5.12-1,13,13,0,0,1-7-7,13.27,13.27,0,0,1,.73-11.73,13.18,13.18,0,0,1,4.8-4.81A12.85,12.85,0,0,1,20,6.81a13,13,0,0,1,6.61,1.77,13.23,13.23,0,0,1,4.82,4.81A12.84,12.84,0,0,1,33.18,20a13,13,0,0,1-1.77,6.63Z"/><path class="cls-2" d="M20.93,19.85V11.36a1,1,0,0,0-.95-.92.93.93,0,0,0-.91.92V20a1,1,0,0,1,0,.13.84.84,0,0,0,.24.74l4.91,4.91a.93.93,0,0,0,1.26,0,.88.88,0,0,0,0-1.28Z"/></g></g></svg>