<svg xmlns="http://www.w3.org/2000/svg" viewBox="0 0 40 40"><defs><style>.cls-1{fill:#7d141a;}.cls-2{fill:#fff;fill-rule:evenodd;}</style></defs><title>Asset 35</title><g id="Layer_2" data-name="Layer 2"><g id="Layer_1-2" data-name="Layer 1"><path class="cls-1" d="M40,20A20,20,0,1,1,0,20a20.32,20.32,0,0,1,.48-4.37A20,20,0,0,1,40,20Z"/><path class="cls-2" d="M34,19.64A13.76,13.76,0,0,1,13.61,31.58L6,34l2.48-7.32a13.48,13.48,0,0,1-2-7,13.75,13.75,0,0,1,27.49,0ZM20.26,8.17A11.53,11.53,0,0,0,8.7,19.64a11.36,11.36,0,0,0,2.2,6.72L9.46,30.62l4.44-1.41a11.5,11.5,0,1,0,6.36-21ZM27.2,22.78c-.09-.14-.31-.22-.65-.39s-2-1-2.3-1.09-.54-.16-.76.17-.87,1.09-1.07,1.31-.39.25-.73.08A9.14,9.14,0,0,1,19,21.21a9.85,9.85,0,0,1-1.87-2.32c-.2-.33,0-.51.14-.68s.34-.39.51-.59a2.1,2.1,0,0,0,.34-.55.64.64,0,0,0,0-.59c-.08-.17-.76-1.81-1-2.48s-.56-.56-.76-.56-.42,0-.64,0a1.26,1.26,0,0,0-.9.42,3.74,3.74,0,0,0-1.18,2.79,6.61,6.61,0,0,0,1.37,3.46c.17.22,2.33,3.71,5.76,5s3.43.9,4,.84A3.42,3.42,0,0,0,27,24.37a2.84,2.84,0,0,0,.2-1.59Z"/></g></g></svg>