<svg xmlns="http://www.w3.org/2000/svg" viewBox="0 0 40 40"><defs><style>.cls-1{fill:#7d141a;}.cls-2{fill:#fff;}</style></defs><title>Asset 36</title><g id="Layer_2" data-name="Layer 2"><g id="Layer_1-2" data-name="Layer 1"><path class="cls-1" d="M40,20A20,20,0,1,1,0,20a20.32,20.32,0,0,1,.48-4.37A20,20,0,0,1,40,20Z"/><path class="cls-2" d="M40,20a20,20,0,0,1-1,6.36h-.5c-.45,0-.56-.12-.56-.57q0-3.39,0-6.78c0-.6-.23-.84-.79-.84s-.8.26-.8.85v6.65c0,.63-.1.73-.74.72H34.26c-.49,0-.61-.13-.61-.65q0-3.34,0-6.69c0-.59-.22-.85-.73-.87s-.86.24-.86.86v6.7c0,.53-.08.61-.62.61H29.92c-.34,0-.51-.14-.51-.5q0-4.87,0-9.74c0-.36.16-.52.5-.53h1.66c.35,0,.47.22.51.55a2.83,2.83,0,0,1,2.76-.44,2.37,2.37,0,0,1,.78.46.28.28,0,0,0,.43,0,2.73,2.73,0,0,1,3.59,0A19.82,19.82,0,0,1,40,20Z"/><path class="cls-2" d="M13.94,21.67h0V18.26a2.48,2.48,0,0,0,0-.27,2.27,2.27,0,0,0-2.07-2.27,24.1,24.1,0,0,0-3.4-.08c-.29,0-.4.2-.4.48V17.5c0,.52.11.63.62.64.69,0,1.38,0,2.06,0,.39,0,.56.17.54.52s-.19.49-.53.48-.77,0-1.15,0A2.51,2.51,0,0,0,7,21.62c0,.7,0,1.4,0,2.1a2.39,2.39,0,0,0,2.63,2.62q1.55,0,3.09,0c.85,0,1.23-.38,1.24-1.23C14,24,13.94,22.82,13.94,21.67ZM10.79,24C9.68,24,9.66,24,9.66,22.9c0-.24,0-.48,0-.72a.61.61,0,0,1,0-.27c.27-.53.77-.27,1.17-.3s.44.19.43.49v1.35C11.29,23.79,11.13,24,10.79,24Z"/><path class="cls-2" d="M21.82,20.05c0,1.19,0,2.38,0,3.56A2.61,2.61,0,0,1,19,26.4H16.32c-.49,0-.6-.11-.6-.61s0-1,0-1.5.16-.54.52-.54h2.37c.31,0,.59-.06.59-.43s-.28-.42-.59-.42a7.16,7.16,0,0,1-1.73-.1,2.46,2.46,0,0,1-1.95-2.31c0-1.47,0-2.93,0-4.4,0-.3.16-.45.47-.45.54,0,1.08,0,1.62,0s.55.12.55.54v3.37c0,.59.11.7.68.7.94,0,1,0,.95-.94s0-2.06,0-3.09c0-.49.09-.58.58-.58H21.2c.53,0,.62.09.62.62C21.83,17.51,21.82,18.78,21.82,20.05Z"/><path class="cls-2" d="M6.32,18.15a2.36,2.36,0,0,0-2.57-2.52c-1.09,0-2.18,0-3.27,0A20.14,20.14,0,0,0,1,26.39h.42c.5,0,.62-.12.62-.6,0-.76,0-1.53,0-2.29,0-.24.06-.32.31-.32q.81,0,1.62,0A2.28,2.28,0,0,0,6.3,21C6.35,20.05,6.34,19.1,6.32,18.15ZM3.68,20.07a.44.44,0,0,1-.47.47c-.29,0-.58,0-.87,0s-.26-.09-.26-.28,0-.58,0-.87,0-.55,0-.83.09-.32.32-.3.53,0,.79,0a.45.45,0,0,1,.49.5Z"/><path class="cls-2" d="M27,22.27v3.6c0,.47-.09.56-.55.56s-1,0-1.51,0-.55-.11-.55-.57V18.78c0-.52,0-.52-.5-.52-1,0-1,0-1-1V16.17c0-.35.13-.54.51-.54a2.47,2.47,0,0,0,2.17-1.22,1.81,1.81,0,0,1,.78-.77c.4-.18.64,0,.65.4s0,.9,0,1.34c0,.19.05.26.25.25s.5,0,.75,0a.38.38,0,0,1,.44.43c0,.58,0,1.16,0,1.75a.4.4,0,0,1-.46.45h-.08c-.89,0-.89,0-.89.92Z"/></g></g></svg>