<svg xmlns="http://www.w3.org/2000/svg" viewBox="0 0 40 40"><defs><style>.cls-1{fill:#7d141a;}.cls-2{fill:#fff;}</style></defs><title>Asset 34</title><g id="Layer_2" data-name="Layer 2"><g id="Layer_1-2" data-name="Layer 1"><path class="cls-1" d="M40,20A20,20,0,1,1,0,20a20.32,20.32,0,0,1,.48-4.37A20,20,0,0,1,40,20Z"/><path class="cls-2" d="M32.78,30.6h-.47V18.37a3.82,3.82,0,0,0,1.76-3.22.46.46,0,0,0,0-.2L30.75,9.22a1.3,1.3,0,0,0-1.13-.65H10.38a1.3,1.3,0,0,0-1.13.65L6,15a.46.46,0,0,0-.05.2,3.82,3.82,0,0,0,1.76,3.22V30.6H7.22a.42.42,0,0,0,0,.83H32.78a.42.42,0,0,0,0-.83Zm-26-15H8.1a.41.41,0,0,0,0-.82h-1L10,9.63a.47.47,0,0,1,.41-.23H29.62a.47.47,0,0,1,.41.23L33,14.74H31.9a.41.41,0,0,0,0,.82h1.32a3,3,0,0,1-5.95,0h2.87a.41.41,0,0,0,0-.82H9.86a.41.41,0,0,0,0,.82h2.87a3,3,0,0,1-5.95,0Zm19.61,0a3,3,0,0,1-5.95,0Zm-6.83,0a3,3,0,0,1-5.95,0Zm-11,3.21A3.67,3.67,0,0,0,9.75,19a3.85,3.85,0,0,0,3.42-2.1,3.83,3.83,0,0,0,6.83,0,3.83,3.83,0,0,0,6.83,0A3.85,3.85,0,0,0,30.25,19a3.67,3.67,0,0,0,1.24-.21V30.6H30.11V20.44a.41.41,0,0,0-.42-.41H24.41a.41.41,0,0,0-.42.41V30.6H8.51ZM29.28,28.4H24.82V20.85h4.46Zm-4.46.83h4.46V30.6H24.82Z"/><path class="cls-2" d="M22.2,20H10.31a.41.41,0,0,0-.42.41v8.37a.42.42,0,0,0,.42.42H22.2a.42.42,0,0,0,.42-.42V20.44A.41.41,0,0,0,22.2,20Zm-.41,8.37H10.72V20.85H21.79Z"/></g></g></svg>