<svg xmlns="http://www.w3.org/2000/svg" viewBox="0 0 453 139.57"><defs><style>.cls-1{font-size:53.82px;font-family:News701BT-BoldA, News701 BT;font-weight:700;}.cls-1,.cls-3{fill:#fff;}.cls-2{fill:#ffcb04;}</style></defs><title>Asset 50</title><g id="Layer_2" data-name="Layer 2"><g id="Layer_1-2" data-name="Layer 1"><text class="cls-1" transform="translate(178.25 98.52)">Ki</text><text class="cls-1" transform="translate(247.95 98.52)">Biryani</text><circle class="cls-2" cx="69.79" cy="69.79" r="69.79"/><path class="cls-3" d="M29.75,63.68l-9-.08s-1.53-.43.86-4.31c0,0,3.55-6.81,7.76-7l36.94.31s5.65-.27,2.32,5L65.8,61s-1.86,2.09-3.4,1.55l-.34,39.57s.4,1.37-1.67,3.36l-5.16,4.06s-3.62,3-3.26-3.08l.21-24.42A66.57,66.57,0,0,1,38.31,95c-8.46,5.83-8.87-6.18-8.87-6.18ZM38.4,84.8c5.52,2.26,11.23-5.16,11.23-5.16,2.7-3.88,2.4-4.51,2.4-4.51L52.13,64l-15.81-.13C36.16,83,38.4,84.8,38.4,84.8Z"/><path class="cls-3" d="M20.65,38.68,25.2,35.3s1.6-.65,3.58,1.38c4.66,4.76,14.3,12,18.84,14.08,4.32,1.93,14.26,6.62,21.57-3.26,0,0,2.1-3.79-3.28-1.34,0,0-8.41,4.76-28.61-15.57,0,0-4.73-5.2-9.33-1.87a64.43,64.43,0,0,0-8.16,7.14S18.09,39,20.65,38.68Z"/><path class="cls-3" d="M128.28,56.53,93.61,58.35a.52.52,0,0,0-.49.52v6.91l33.31-7.4Z"/><path class="cls-3" d="M108.85,39s7.4-3.71,5.55,3.7-10.17,40.71-9.25,48.11c.95,7.57,4.63,11.1,11.1,1.85,7.66-10.93,11.11-36.68,11.11-36.68s7.47-1.8,8.32,5.55c.71,6-4.85,22.33-6.71,27.56A3.8,3.8,0,0,0,130,93.22c2,1.66,5.95,1.35,12.59-13,.07-.16.14-.32.2-.48.76-2,6.12-16.23,6.75-20,.93-5.55,8.33-1.85,8.33,3.7s-11.1,25.53-5.55,31.08c0,0,4.49,5.39,20.54-15.68a.24.24,0,0,1,.43.2c-1.06,3.74-5.05,15.43-14.78,21.92a8.11,8.11,0,0,1-3.88,1.35c-3.5.23-9.71-.85-9.71-11.49,0,0-13.88,20.36-21.28,7.4,0,0-10.18,13-21.29,1.85,0,0-3.7-3.7-2.77-13C99.6,87.06,103.3,50.05,108.85,39Z"/><path class="cls-3" d="M80.17,98.16c-5.55,0-5.55-3.7-5.55-7.4,0,0,14.8-9.25,18.5-20.36s-7.4-16.65-13-14.8S69.06,76,67.21,87.06,70.92,113,83.87,103.71s16.65-16.65,16.65-16.65S85.72,98.16,80.17,98.16ZM82,64.85c1.85-3.7,5.55-3.7,5.55,1.85s-11.1,14.81-11.1,14.81S80.17,68.55,82,64.85Z"/></g></g></svg>