<svg xmlns="http://www.w3.org/2000/svg" xmlns:xlink="http://www.w3.org/1999/xlink" viewBox="0 0 100 100"><defs><style>.cls-1{fill:url(#linear-gradient);}.cls-2,.cls-4,.cls-5{fill:none;stroke-miterlimit:10;stroke-width:2px;}.cls-2{stroke:#ffcc0a;}.cls-2,.cls-4{stroke-linecap:round;}.cls-3{fill:#7d141a;}.cls-4,.cls-5{stroke:#7d141a;}</style><linearGradient id="linear-gradient" x1="50" y1="100" x2="50" gradientUnits="userSpaceOnUse"><stop offset="0" stop-color="#fff"/><stop offset="0.5" stop-color="#fafdff"/><stop offset="0.55" stop-color="#f9fdff"/><stop offset="1" stop-color="#f0fafe"/></linearGradient></defs><title>Asset 47</title><g id="Layer_2" data-name="Layer 2"><g id="Layer_1-2" data-name="Layer 1"><circle class="cls-1" cx="50" cy="50" r="50"/><line class="cls-2" x1="54.01" y1="35.36" x2="45.99" y2="27.33"/><line class="cls-2" x1="54.01" y1="27.33" x2="45.99" y2="35.36"/><path class="cls-3" d="M42.32,50.78a.78.78,0,0,0,1.56,0,3.11,3.11,0,0,0-6.22,0,.78.78,0,1,0,1.55,0,1.56,1.56,0,0,1,3.11,0Z"/><path class="cls-3" d="M59.42,47.67a3.12,3.12,0,0,0-3.11,3.11.78.78,0,1,0,1.56,0,1.55,1.55,0,1,1,3.1,0,.78.78,0,0,0,1.56,0,3.12,3.12,0,0,0-3.11-3.11Z"/><path class="cls-4" d="M27.57,41.75H72.43a0,0,0,0,1,0,0V69.54a3.13,3.13,0,0,1-3.13,3.13H30.7a3.13,3.13,0,0,1-3.13-3.13V41.75A0,0,0,0,1,27.57,41.75Z"/><path class="cls-4" d="M40.49,49.52v4.71A8.45,8.45,0,0,0,49,62.68H51a8.45,8.45,0,0,0,8.46-8.45V49.52"/><polyline class="cls-4" points="70.91 41.75 70.91 31.07 70 31.07 55.04 31.07"/><polyline class="cls-4" points="29.1 41.75 29.1 41.72 29.1 31.07 29.41 31.07 44.97 31.07"/><polyline class="cls-4" points="29.41 31.07 34.58 36.24 29.1 41.72 29.07 41.75"/><polyline class="cls-4" points="70.34 41.75 64.83 36.24 70 31.07"/><line class="cls-5" x1="34.97" y1="41.22" x2="34.97" y2="36.24"/><line class="cls-5" x1="64.41" y1="41.22" x2="64.41" y2="36.24"/></g></g></svg>