<svg xmlns="http://www.w3.org/2000/svg" viewBox="0 0 348.04 279.52"><defs><style>.cls-1{fill:#fff;}.cls-2,.cls-3,.cls-4,.cls-7{fill:none;stroke-miterlimit:10;}.cls-2,.cls-3,.cls-4{stroke:#8e8e8e;}.cls-3{stroke-dasharray:4.03 4.03;}.cls-4{stroke-dasharray:3 3;}.cls-5{fill:#7d141a;}.cls-6{fill:#ffc200;}.cls-7{stroke:#fff;stroke-linecap:round;stroke-width:2px;}</style></defs><title>Asset 44</title><g id="Layer_2" data-name="Layer 2"><g id="Layer_1-2" data-name="Layer 1"><ellipse class="cls-1" cx="180.29" cy="152.85" rx="49.34" ry="48.82"/><ellipse class="cls-2" cx="254.45" cy="212.33" rx="3.74" ry="3.7"/><ellipse class="cls-2" cx="276.88" cy="99.63" rx="3.74" ry="3.7"/><ellipse class="cls-2" cx="117.75" cy="199.28" rx="3.74" ry="3.7"/><ellipse class="cls-2" cx="95.84" cy="253.02" rx="6.42" ry="6.35"/><ellipse class="cls-2" cx="95.91" cy="6.85" rx="6.42" ry="6.35"/><ellipse class="cls-2" cx="343.8" cy="160.76" rx="3.74" ry="3.7"/><ellipse class="cls-2" cx="4.24" cy="108.67" rx="3.74" ry="3.7"/><ellipse class="cls-2" cx="332.15" cy="250.33" rx="3.74" ry="3.7"/><ellipse class="cls-2" cx="306.5" cy="28.24" rx="3.74" ry="3.7"/><ellipse class="cls-2" cx="223.8" cy="34.5" rx="5.8" ry="5.74"/><ellipse class="cls-3" cx="180.29" cy="152.85" rx="65.83" ry="65.13"/><path class="cls-2" d="M218.42,32.4,217,32"/><path class="cls-4" d="M214.1,31.15a129.41,129.41,0,0,0-33.8-4.48c-70.44,0-127.54,56.49-127.54,126.17a125.21,125.21,0,0,0,42.33,93.87q3.47,3.09,7.15,5.92A127.8,127.8,0,0,0,180.3,279c70.43,0,127.54-56.49,127.54-126.18,0-51.44-31.13-95.69-75.76-115.34"/><path class="cls-2" d="M230.69,36.9l-1.38-.58"/><path class="cls-2" d="M256.78,209.44a93.46,93.46,0,0,0,19-56.6c0-52.17-42.76-94.47-95.5-94.47s-95.5,42.3-95.5,94.47,42.75,94.48,95.5,94.48a95.69,95.69,0,0,0,71.76-32.15"/><ellipse class="cls-5" cx="180.29" cy="152.85" rx="45.68" ry="45.2"/><path class="cls-1" d="M167,164.11l28.29,1.3s4.39-.52,1.6-5.55c-2.6-5.12-3.39-6.71-2.91-12.44.65-7.67-6.95-12.76-12.58-12.95-5.12-.17-11.2,2.8-13,8.91s1.16,7.17-3.77,13.79S167,164.11,167,164.11Z"/><path class="cls-1" d="M174.54,165.7l11.46.63s.59,5.36-5.31,5.77C180.69,172.1,173.43,171.86,174.54,165.7Z"/><circle class="cls-6" cx="220.24" cy="126.46" r="11.35"/><line class="cls-7" x1="224.7" y1="97.22" x2="221.96" y2="107.49"/><line class="cls-7" x1="236.93" y1="116.49" x2="246.03" y2="110.13"/><line class="cls-7" x1="237.22" y1="135.08" x2="249.26" y2="135.08"/></g></g></svg>