<svg xmlns="http://www.w3.org/2000/svg" viewBox="0 0 150 150.49"><defs><style>.cls-1{fill:#ffcc0a;}.cls-2{fill:#7c131b;}.cls-3{fill:none;stroke:#7c131b;stroke-miterlimit:10;stroke-width:4px;}</style></defs><title>Asset 46</title><g id="Layer_2" data-name="Layer 2"><g id="Layer_1-2" data-name="Layer 1"><path class="cls-1" d="M75,142.35a67.11,67.11,0,1,1,66.87-67.1A67.08,67.08,0,0,1,75,142.35ZM49.44,27.77a7.26,7.26,0,0,1-3.91,7.17c-3.28,1.67-5.48,5.24-5.48,11.83,0,10,6.42,23.06,11.26,23.06h0c5.1,0,11.27-13.08,11.27-23.06,0-6.59-2.2-10.16-5.48-11.83a7.26,7.26,0,0,1-3.91-7.17l1-16.29s-3.61,1.2-5,1.9Zm45.19,0a7.26,7.26,0,0,1-3.91,7.17c-3.28,1.67-5.48,5.24-5.48,11.83V68.3a1.52,1.52,0,0,0,1.53,1.53,1.61,1.61,0,0,0,1.61-1.62v-20a1.63,1.63,0,1,1,3.25,0v20a1.61,1.61,0,0,0,1.62,1.62h0a1.61,1.61,0,0,0,1.62-1.62v-20a1.63,1.63,0,1,1,3.25,0v20a1.61,1.61,0,0,0,1.61,1.62h0a1.61,1.61,0,0,0,1.61-1.62v-20a1.63,1.63,0,1,1,3.25,0v20a1.61,1.61,0,0,0,1.61,1.62h0a1.52,1.52,0,0,0,1.53-1.53V46.77c0-6.59-2.19-10.16-5.47-11.83a7.26,7.26,0,0,1-3.91-7.17L99,12.59s-2.87-1.07-5-1.71Z"/><path class="cls-2" d="M79.33,119.62a80.86,80.86,0,0,1,.2-11.22,51.58,51.58,0,0,1,2.18-11.13,34.29,34.29,0,0,1,2.22-5.33,23.67,23.67,0,0,1,3.3-4.88,18.85,18.85,0,0,1,4.63-3.87,15.64,15.64,0,0,1,2.81-1.31,12.79,12.79,0,0,1,1.53-.43,8.25,8.25,0,0,1,1.73-.23h.21l.27.08a7.63,7.63,0,0,1,3.6,2.4,12.65,12.65,0,0,1,2,3.38,21.33,21.33,0,0,1,1.12,3.54,26.39,26.39,0,0,1,.57,3.66v.2a43.56,43.56,0,0,1-2,11.67,27.09,27.09,0,0,1-6.15,10.43A26,26,0,0,1,87.24,123a34.31,34.31,0,0,1-11.8,1.74c-1,0-2-.08-3-.18a22.57,22.57,0,0,1-3-.48,33.74,33.74,0,0,1-5.69-1.69,30.43,30.43,0,0,1-10-6.33A32,32,0,0,1,47,106.63a34.5,34.5,0,0,1-3.23-11l.31.25a2.63,2.63,0,0,0-1,.25,2.29,2.29,0,0,0-.84.67,2.8,2.8,0,0,0-.47,1,4.88,4.88,0,0,0-.11,1.15,4.65,4.65,0,0,1,0-1.18A3,3,0,0,1,42,96.59a2.65,2.65,0,0,1,.87-.89,3,3,0,0,1,1.2-.45l.24,0,.07.29A35,35,0,0,0,55.5,114.22a29.26,29.26,0,0,0,9.38,5.26,32.22,32.22,0,0,0,5.25,1.3,25.52,25.52,0,0,0,5.33.43c7.17-.07,14.45-2.28,19.22-7.37a24.88,24.88,0,0,0,5.29-9,40.31,40.31,0,0,0,2-10.61v.2a22.62,22.62,0,0,0-.39-3.07,17.44,17.44,0,0,0-.84-3A9.09,9.09,0,0,0,99.34,86a4.16,4.16,0,0,0-1.92-1.41l.48.07a6.9,6.9,0,0,0-1,.12,10,10,0,0,0-1.18.27,12.55,12.55,0,0,0-2.29.94,15.94,15.94,0,0,0-4,3.07,27.68,27.68,0,0,0-5.58,9,54.66,54.66,0,0,0-3,10.57A108.86,108.86,0,0,0,79.33,119.62Z"/><path class="cls-2" d="M88.15,120.68a19.68,19.68,0,0,1,.44-3.83,26.59,26.59,0,0,1,1-3.32,28.18,28.18,0,0,1,1.38-3.17,16.7,16.7,0,0,1,2.15-3.22,8.3,8.3,0,0,1,.92,3.94,11.56,11.56,0,0,1-2.6,7.18A7.93,7.93,0,0,1,88.15,120.68Z"/><path class="cls-3" d="M75,2A73.19,73.19,0,0,0,2,75.24c0,40.36,32.74,73.25,73,73.25s73-32.89,73-73.25A73.2,73.2,0,0,0,75,2Z"/></g></g></svg>