<svg xmlns="http://www.w3.org/2000/svg" viewBox="0 0 39.5 39.94"><defs><style>.cls-1{fill:none;stroke:#000;stroke-miterlimit:10;stroke-width:2.5px;}</style></defs><title>Asset 38</title><g id="Layer_2" data-name="Layer 2"><g id="Layer_1-2" data-name="Layer 1"><path class="cls-1" d="M29.48,38.69a2.62,2.62,0,0,1-1.29-.34L20,33.81a.53.53,0,0,0-.52,0l-8.18,4.54a2.62,2.62,0,0,1-2.91-.22,3,3,0,0,1-1.1-2.85l1.57-9.62a.61.61,0,0,0-.16-.52L2.09,18.32a3,3,0,0,1-.7-3,2.79,2.79,0,0,1,2.22-2L12.77,12a.56.56,0,0,0,.41-.32l4.1-8.76a2.69,2.69,0,0,1,4.94,0l4.1,8.76a.56.56,0,0,0,.41.32l9.16,1.4a2.79,2.79,0,0,1,2.22,2,3,3,0,0,1-.7,3l-6.62,6.82a.61.61,0,0,0-.16.52l1.57,9.62a3,3,0,0,1-1.1,2.85A2.65,2.65,0,0,1,29.48,38.69Z"/></g></g></svg>